Coordinates
version=1
nRows=13
nColumns=38
inDegrees=yes

Units are S.I. units (second, meters, Newtons, ...)
If the header above contains a line with 'inDegrees', this indicates whether rotational values are in degrees (yes) or radians (no).

endheader
time	pelvis_tilt	pelvis_list	pelvis_rotation	pelvis_tx	pelvis_ty	pelvis_tz	hip_flexion_r	hip_adduction_r	hip_rotation_r	knee_angle_r	ankle_angle_r	subtalar_angle_r	mtp_angle_r	hip_flexion_l	hip_adduction_l	hip_rotation_l	knee_angle_l	ankle_angle_l	subtalar_angle_l	mtp_angle_l	lumbar_extension	lumbar_bending	lumbar_rotation	arm_flex_r	arm_add_r	arm_rot_r	elbow_flex_r	pro_sup_r	wrist_flex_r	wrist_dev_r	arm_flex_l	arm_add_l	arm_rot_l	elbow_flex_l	pro_sup_l	wrist_flex_l	wrist_dev_l
      1.18400000	     -2.29610437	      3.81130435	      7.08425820	     -1.17190129	      1.06847491	      0.22329443	    -23.98921910	      0.17281144	     -5.99329886	    -19.84444282	    -25.56791696	      1.58700135	     16.93253815	     32.23936058	      9.34302618	      0.72915449	    -28.22703261	     -7.87222959	      5.04029833	      9.71662799	     -5.98525514	     -3.15061129	      7.18102354	    -14.39736302	    -31.27028107	    -19.43565276	    135.48002136	    166.08628410	      0.00000000	      0.00000000	    -56.63898778	    -22.54153518	     -0.62688559	     71.98200639	    126.71028012	      0.00000000	      0.00000000
      1.18800000	     -1.92596053	      3.53063774	      7.14454037	     -1.15656477	      1.06889173	      0.22307601	    -24.36023431	      0.60064658	     -5.69784749	    -20.79361125	    -24.62481712	      0.92709040	     16.65717725	     31.03376926	      9.11185801	      1.35863134	    -25.58890872	     -8.26461830	      6.13470161	      9.95452753	     -6.26362448	     -2.81476113	      7.17757468	    -14.83214823	    -31.13640900	    -19.61940936	    135.60765736	    166.01448902	      0.00000000	      0.00000000	    -56.70729907	    -22.60577881	     -0.58826182	     72.09712574	    126.51420727	      0.00000000	      0.00000000
      1.19200000	     -1.85938709	      3.24795041	      7.14046966	     -1.14112695	      1.06883379	      0.22267109	    -24.34726277	      0.91052109	     -5.44835993	    -21.82060564	    -24.04638894	      0.55338671	     16.62279348	     30.11634756	      8.91737315	      2.08234772	    -23.00630748	     -8.39173693	      6.78302024	     10.00104682	     -6.11838150	     -2.47793350	      7.14481122	    -15.23132138	    -31.01927560	    -19.52088473	    135.51690260	    166.02429478	      0.00000000	      0.00000000	    -56.84950860	    -22.56239488	     -0.55372920	     72.22275998	    126.47615660	      0.00000000	      0.00000000
      1.19600000	     -1.37710240	      3.07484886	      7.30292138	     -1.12604101	      1.06897823	      0.22244240	    -24.71987501	      1.32207736	     -5.16920872	    -23.04859611	    -22.51289875	     -0.30636743	     16.43155123	     28.85518976	      8.74990600	      2.60859733	    -20.65190645	     -8.81436243	      7.98625274	     10.19691264	     -6.61045695	     -2.24599855	      6.98262935	    -15.68769327	    -30.97409615	    -19.79626224	    135.55851251	    165.92121756	      0.00000000	      0.00000000	    -56.78974851	    -22.70282498	     -0.43852695	     72.21685646	    126.26976055	      0.00000000	      0.00000000
      1.20000000	     -1.19564300	      2.89004435	      7.36746995	     -1.11087996	      1.06872234	      0.22204187	    -24.73413152	      1.60988816	     -4.81165338	    -24.28769446	    -21.72735797	     -0.71686500	     16.35204940	     27.87347518	      8.58515548	      3.24845888	    -18.37255235	     -8.95333047	      8.79256012	     10.29698855	     -6.66752388	     -2.02784352	      6.84785514	    -16.13751753	    -30.87845957	    -19.74873119	    135.31072573	    165.90164759	      0.00000000	      0.00000000	    -56.84384381	    -22.76089121	     -0.30155144	     72.28994789	    126.18790674	      0.00000000	      0.00000000
      1.20400000	     -0.92411719	      2.64829638	      7.52682966	     -1.09589817	      1.06838078	      0.22162414	    -24.73434605	      1.98849064	     -4.73091837	    -25.68939036	    -20.64853093	     -1.30724364	     16.28558196	     26.90071644	      8.34197064	      3.63888228	    -16.35495978	     -9.16904973	      9.62016937	     10.40834144	     -6.89558299	     -1.72753806	      6.66568644	    -16.61827871	    -30.80016194	    -19.77588066	    135.07100600	    165.85829002	      0.00000000	      0.00000000	    -56.72535600	    -22.79824071	     -0.27548120	     72.42973890	    126.09182839	      0.00000000	      0.00000000
      1.20800000	     -0.62620555	      2.39099273	      7.74046516	     -1.08108729	      1.06785415	      0.22149059	    -24.71445352	      2.44000572	     -4.62040004	    -27.15318498	    -19.57995235	     -1.92932323	     16.20568383	     26.00702644	      8.06786161	      3.87919044	    -14.64615152	     -9.35824363	     10.37202231	     10.53401703	     -7.13936284	     -1.43876937	      6.42495083	    -17.03321920	    -30.63638170	    -19.84281031	    134.71240353	    165.78697331	      0.00000000	      0.00000000	    -56.63251542	    -22.94795847	     -0.15537583	     72.51727365	    125.99479908	      0.00000000	      0.00000000
      1.21200000	     -0.29498552	      2.09111734	      7.96250587	     -1.06645057	      1.06720918	      0.22130742	    -24.62873962	      2.91723527	     -4.60079178	    -28.73670714	    -18.66664791	     -2.53465589	     16.12872916	     25.18320557	      7.75683035	      3.94727966	    -13.25359613	     -9.49348068	     10.99030136	     10.66279193	     -7.47263891	     -1.09710542	      6.18038989	    -17.50888657	    -30.47190293	    -19.79117052	    134.33491086	    165.73209629	      0.00000000	      0.00000000	    -56.45537398	    -23.01332603	     -0.18233328	     72.74479164	    125.89956998	      0.00000000	      0.00000000
      1.21600000	      0.00829463	      1.84041348	      8.19559274	     -1.05183481	      1.06644973	      0.22120549	    -24.49178812	      3.36212898	     -4.53426937	    -30.35145228	    -17.80933729	     -3.13397042	     16.04438300	     24.46397275	      7.48866204	      3.96029347	    -12.11301699	     -9.73235855	     11.47533495	     10.77880042	     -7.75479743	     -0.79957753	      5.93144206	    -17.98364482	    -30.29093493	    -19.72461573	    133.85651394	    165.67838897	      0.00000000	      0.00000000	    -56.21602045	    -23.20762291	     -0.09468438	     72.88232580	    125.79980360	      0.00000000	      0.00000000
      1.22000000	      0.29091771	      1.61412203	      8.42837596	     -1.03718692	      1.06563571	      0.22128287	    -24.24150258	      3.77168750	     -4.57791787	    -32.09735211	    -17.06139037	     -3.73148272	     15.96012637	     23.65641060	      7.23958916	      3.79463619	    -10.92214217	     -9.90987310	     11.66841900	     10.87797328	     -8.04589046	     -0.57554994	      5.63009641	    -18.45178929	    -30.02755258	    -19.61216922	    133.25391494	    165.62201384	      0.00000000	      0.00000000	    -55.97793856	    -23.34748436	      0.04538594	     72.89656043	    125.69799035	      0.00000000	      0.00000000
      1.22400000	      0.82284180	      1.41853533	      8.29154869	     -1.02271240	      1.06497547	      0.22175652	    -24.23330569	      4.11213649	     -4.00147037	    -33.84927209	    -16.34170716	     -4.61088658	     15.19772744	     22.77478512	      6.86778163	      3.27753133	    -10.17091766	    -10.30427787	     11.14085564	     11.41642456	     -8.63449036	     -0.38022223	      5.83220918	    -19.04041771	    -29.67759250	    -19.83406142	    132.61341317	    164.96730223	      0.00000000	      0.00000000	    -55.53184480	    -23.55971142	     -0.05621388	     73.23852179	    125.03400167	      0.00000000	      0.00000000
      1.22800000	      1.14412275	      1.29849693	      8.48310464	     -1.00827267	      1.06375099	      0.22151880	    -23.88150042	      4.31163208	     -4.28032263	    -35.84508515	    -15.79146014	     -5.12668036	     15.14146189	     22.24372396	      6.75542764	      3.17264842	     -9.85860223	    -10.32064029	     11.13071667	     11.47857266	     -8.99056001	     -0.22829136	      5.50362655	    -19.47800517	    -29.43766863	    -19.53284335	    131.98375630	    164.92780622	      0.00000000	      0.00000000	    -55.24883226	    -23.62554496	      0.07559467	     73.30136874	    124.95231082	      0.00000000	      0.00000000
      1.23200000	      1.48060262	      1.19474025	      8.68032770	     -0.99382445	      1.06239807	      0.22157325	    -23.52069056	      4.54368893	     -4.48041474	    -37.86979339	    -15.22273224	     -5.71137389	     15.08026359	     21.74237755	      6.64053109	      2.97632089	     -9.75783884	    -10.37421516	     10.87034655	     11.53848838	     -9.36887723	     -0.10647681	      5.22243808	    -19.92434005	    -29.24145238	    -19.34369865	    131.22530599	    164.86435917	      0.00000000	      0.00000000	    -54.92183015	    -23.83382034	      0.26593131	     73.33667403	    124.86491963	      0.00000000	      0.00000000
